<svg width="1024" height="1024" viewBox="0 0 1024 1024" fill="none" xmlns="http://www.w3.org/2000/svg">
  <defs>
    <filter id="tile-shadow" x="54" y="58" width="916" height="916" color-interpolation-filters="sRGB" filterUnits="userSpaceOnUse">
      <feDropShadow dx="0" dy="18" stdDeviation="24" flood-color="#0F172A" flood-opacity="0.16"/>
      <feDropShadow dx="0" dy="2" stdDeviation="4" flood-color="#0F172A" flood-opacity="0.12"/>
    </filter>
    <linearGradient id="front" x1="316" y1="274" x2="596" y2="734" gradientUnits="userSpaceOnUse">
      <stop offset="0" stop-color="#38BDF8"/>
      <stop offset="0.55" stop-color="#4F46E5"/>
      <stop offset="1" stop-color="#3730A3"/>
    </linearGradient>
    <linearGradient id="back" x1="572" y1="252" x2="766" y2="700" gradientUnits="userSpaceOnUse">
      <stop offset="0" stop-color="#A78BFA"/>
      <stop offset="0.58" stop-color="#6D5DF6"/>
      <stop offset="1" stop-color="#4C1D95"/>
    </linearGradient>
    <linearGradient id="line" x1="264" y1="438" x2="602" y2="438" gradientUnits="userSpaceOnUse">
      <stop offset="0" stop-color="#E2E8F0"/>
      <stop offset="1" stop-color="#CBD5E1"/>
    </linearGradient>
  </defs>
  <g filter="url(#tile-shadow)">
    <rect x="100" y="100" width="824" height="824" rx="184" fill="#FFFFFF"/>
    <rect x="102" y="102" width="820" height="820" rx="183" stroke="#E5E7EB" stroke-width="2"/>
  </g>
  <path d="M294 412H522C536.359 412 548 423.641 548 438C548 452.359 536.359 464 522 464H294C279.641 464 268 452.359 268 438C268 423.641 279.641 412 294 412Z" fill="url(#line)"/>
  <path d="M244 512H526C540.359 512 552 523.641 552 538C552 552.359 540.359 564 526 564H244C229.641 564 218 552.359 218 538C218 523.641 229.641 512 244 512Z" fill="url(#line)"/>
  <path d="M310 612H498C512.359 612 524 623.641 524 638C524 652.359 512.359 664 498 664H310C295.641 664 284 652.359 284 638C284 623.641 295.641 612 310 612Z" fill="url(#line)"/>
  <circle cx="672" cy="332" r="62" fill="url(#back)"/>
  <path d="M672 420C614.562 420 568 466.562 568 524V646C568 668.091 585.909 686 608 686H736C758.091 686 776 668.091 776 646V524C776 466.562 729.438 420 672 420Z" fill="url(#back)"/>
  <circle cx="496" cy="316" r="72" fill="url(#front)"/>
  <path d="M496 416C427.517 416 372 471.517 372 540V678C372 701.196 390.804 720 414 720H578C601.196 720 620 701.196 620 678V540C620 471.517 564.483 416 496 416Z" fill="url(#front)"/>
  <rect x="312" y="544" width="164" height="164" rx="42" fill="#2563EB"/>
  <path d="M362 598H426C438.703 598 449 608.297 449 621C449 628.599 445.312 635.334 439.629 639.521C447.53 643.709 453 652.014 453 661.5C453 675.031 442.031 686 428.5 686H362V598ZM386 620V632H423C426.314 632 429 629.314 429 626C429 622.686 426.314 620 423 620H386ZM386 652V664H426C429.314 664 432 661.314 432 658C432 654.686 429.314 652 426 652H386Z" fill="#FFFFFF"/>
</svg>
