<svg width="1240" height="360" viewBox="0 0 1240 360" fill="none" xmlns="http://www.w3.org/2000/svg">
  <defs>
    <linearGradient id="icon-bg" x1="0" y1="0" x2="280" y2="280" gradientUnits="userSpaceOnUse">
      <stop offset="0" stop-color="#4338CA"/>
      <stop offset="1" stop-color="#3730A3"/>
    </linearGradient>
  </defs>

  <!-- Rounded card background -->
  <rect width="1240" height="360" rx="44" fill="#F8F8F8"/>

  <!-- Icon -->
  <g transform="translate(56 40) scale(0.2734375)">
    <rect x="84" y="84" width="856" height="856" rx="190" fill="url(#icon-bg)"/>
    <path
      d="M280 390C280 302 352 230 440 230H616C704 230 776 302 776 390V522C776 610 704 682 616 682H524L420 784C407 797 384 788 384 770V682H440C352 682 280 610 280 522V390Z"
      fill="white"
    />
    <rect x="376" y="390" width="300" height="38" rx="19" fill="#4338CA" fill-opacity="0.7"/>
    <rect x="376" y="468" width="200" height="38" rx="19" fill="#4338CA" fill-opacity="0.35"/>
  </g>

  <!-- App name -->
  <text x="360" y="168" fill="#111827" font-family="'SF Pro Display', -apple-system, BlinkMacSystemFont, 'Segoe UI', Helvetica, Arial, sans-serif" font-size="92" font-weight="700" letter-spacing="-2.8">
    Better Teams
  </text>

  <!-- Tagline -->
  <text x="362" y="230" fill="#6B7280" font-family="'SF Pro Display', -apple-system, BlinkMacSystemFont, 'Segoe UI', Helvetica, Arial, sans-serif" font-size="32" font-weight="400" letter-spacing="-0.2">
    A calmer desktop shell for Microsoft Teams
  </text>
</svg>
